<svg width="18" height="18" xmlns="http://www.w3.org/2000/svg">

 <g>
  <title>background</title>
  <rect fill="none" id="canvas_background" height="20" width="20" y="-1" x="-1"/>
 </g>
 <g>
  <title>Layer 1</title>
  <g stroke="null" id="svg_5">
   <g id="svg_6">
    <path fill="#8f8f8f" stroke="null" id="svg_2" d="m9,5.033983c-2.152102,0 -3.935273,1.752426 -3.935273,3.935273s1.752426,3.935273 3.935273,3.935273s3.935273,-1.783171 3.935273,-3.935273s-1.783171,-3.935273 -3.935273,-3.935273zm0,6.456307c-1.383494,0 -2.521034,-1.13754 -2.521034,-2.521034s1.13754,-2.521034 2.521034,-2.521034s2.521034,1.13754 2.521034,2.521034s-1.13754,2.521034 -2.521034,2.521034z"/>
    <circle fill="#8f8f8f" stroke="null" id="svg_3" r="0.891585" cy="4.94175" cx="13.088995"/>
    <path fill="#8f8f8f" stroke="null" id="svg_4" d="m15.394819,2.635926c-0.799352,-0.830097 -1.936892,-1.260517 -3.228154,-1.260517l-6.33333,0c-2.674756,0 -4.457926,1.783171 -4.457926,4.457926l0,6.302586c0,1.322006 0.43042,2.459546 1.291261,3.289642c0.830097,0.799352 1.936892,1.199028 3.197409,1.199028l6.271841,0c1.322006,0 2.428801,-0.43042 3.228154,-1.199028c0.830097,-0.799352 1.260517,-1.936892 1.260517,-3.258898l0,-6.33333c0,-1.291261 -0.43042,-2.398057 -1.229773,-3.197409zm-0.122977,9.530739c0,0.953074 -0.338188,1.721682 -0.891585,2.244335s-1.322006,0.799352 -2.244335,0.799352l-6.271841,0c-0.92233,0 -1.690938,-0.276699 -2.244335,-0.799352c-0.553398,-0.553398 -0.830097,-1.322006 -0.830097,-2.27508l0,-6.302586c0,-0.92233 0.276699,-1.690938 0.830097,-2.244335c0.522653,-0.522653 1.322006,-0.799352 2.244335,-0.799352l6.33333,0c0.92233,0 1.690938,0.276699 2.244335,0.830097c0.522653,0.553398 0.830097,1.322006 0.830097,2.213591l0,6.33333l0,0z"/>
   </g>
  </g>
 </g>
</svg>