<svg width="18" height="18" xmlns="http://www.w3.org/2000/svg">
 <title/>
 <desc/>

 <g>
  <title>background</title>
  <rect fill="none" id="canvas_background" height="20" width="20" y="-1" x="-1"/>
 </g>
 <g>
  <title>Layer 1</title>
  <path fill="#8f8f8f" stroke="null" id="Fill-195" d="m16.434446,5.966597c0,0 -0.148344,-1.045498 -0.603326,-1.506038c-0.576693,-0.604169 -1.22351,-0.607037 -1.520032,-0.642438c-2.123017,-0.15357 -5.307718,-0.15357 -5.307718,-0.15357l-0.006741,0c0,0 -3.18453,0 -5.307718,0.15357c-0.296522,0.035401 -0.943003,0.038269 -1.520032,0.642438c-0.454982,0.460541 -0.60299,1.506038 -0.60299,1.506038c0,0 -0.151715,1.227723 -0.151715,2.455446l0,1.151193c0,1.227553 0.151715,2.455276 0.151715,2.455276c0,0 0.148008,1.045498 0.60299,1.506042c0.577029,0.604335 1.335104,0.584949 1.672759,0.648333c1.2139,0.116488 5.158361,0.152561 5.158361,0.152561c0,0 3.188071,-0.00489 5.311089,-0.15829c0.296522,-0.035401 0.943339,-0.038269 1.520032,-0.642604c0.454982,-0.460545 0.603326,-1.506042 0.603326,-1.506042c0,0 0.151378,-1.227723 0.151378,-2.455276l0,-1.151193c0,-1.227723 -0.151378,-2.455446 -0.151378,-2.455446zm-9.000667,5.00125l-0.000673,-4.262726l4.09938,2.138696l-4.098708,2.12403z"/>
 </g>
</svg>